<mxfile host="app.diagrams.net" agent="Mozilla/5.0 (X11; Linux x86_64; rv:132.0) Gecko/20100101 Firefox/132.0" version="24.8.4">
  <diagram name="Page-1" id="I1ZIUi8mSxsxoO9wPNZH">
    <mxGraphModel dx="1658" dy="835" grid="1" gridSize="10" guides="1" tooltips="1" connect="1" arrows="1" fold="1" page="1" pageScale="1" pageWidth="1000" pageHeight="1000" math="0" shadow="0">
      <root>
        <mxCell id="0" />
        <mxCell id="1" parent="0" />
        <mxCell id="vielIPxmUZmTdx7i_PGs-2" value="Start" style="ellipse;whiteSpace=wrap;html=1;" vertex="1" parent="1">
          <mxGeometry x="80" width="120" height="80" as="geometry" />
        </mxCell>
        <mxCell id="vielIPxmUZmTdx7i_PGs-17" value="End" style="ellipse;whiteSpace=wrap;html=1;" vertex="1" parent="1">
          <mxGeometry x="80" y="880" width="120" height="80" as="geometry" />
        </mxCell>
        <mxCell id="vielIPxmUZmTdx7i_PGs-32" value="" style="endArrow=classic;html=1;rounded=0;exitX=0.5;exitY=1;exitDx=0;exitDy=0;" edge="1" parent="1" source="vielIPxmUZmTdx7i_PGs-2">
          <mxGeometry width="50" height="50" relative="1" as="geometry">
            <mxPoint x="160" y="130" as="sourcePoint" />
            <mxPoint x="140" y="120" as="targetPoint" />
          </mxGeometry>
        </mxCell>
        <mxCell id="vielIPxmUZmTdx7i_PGs-107" style="edgeStyle=orthogonalEdgeStyle;rounded=0;orthogonalLoop=1;jettySize=auto;html=1;exitX=0.5;exitY=1;exitDx=0;exitDy=0;entryX=0.5;entryY=0;entryDx=0;entryDy=0;" edge="1" parent="1" target="vielIPxmUZmTdx7i_PGs-17">
          <mxGeometry relative="1" as="geometry">
            <mxPoint x="140" y="840" as="sourcePoint" />
          </mxGeometry>
        </mxCell>
        <mxCell id="vielIPxmUZmTdx7i_PGs-119" style="edgeStyle=orthogonalEdgeStyle;rounded=0;orthogonalLoop=1;jettySize=auto;html=1;exitX=0.5;exitY=1;exitDx=0;exitDy=0;entryX=0.5;entryY=0;entryDx=0;entryDy=0;" edge="1" parent="1" source="vielIPxmUZmTdx7i_PGs-109" target="vielIPxmUZmTdx7i_PGs-110">
          <mxGeometry relative="1" as="geometry" />
        </mxCell>
        <mxCell id="vielIPxmUZmTdx7i_PGs-109" value="enter n, k" style="shape=parallelogram;perimeter=parallelogramPerimeter;whiteSpace=wrap;html=1;fixedSize=1;" vertex="1" parent="1">
          <mxGeometry x="80" y="120" width="120" height="60" as="geometry" />
        </mxCell>
        <mxCell id="vielIPxmUZmTdx7i_PGs-117" style="edgeStyle=orthogonalEdgeStyle;rounded=0;orthogonalLoop=1;jettySize=auto;html=1;exitX=0.5;exitY=1;exitDx=0;exitDy=0;entryX=0.5;entryY=0;entryDx=0;entryDy=0;" edge="1" parent="1" source="vielIPxmUZmTdx7i_PGs-110" target="vielIPxmUZmTdx7i_PGs-111">
          <mxGeometry relative="1" as="geometry" />
        </mxCell>
        <mxCell id="vielIPxmUZmTdx7i_PGs-110" value="i = 0" style="rounded=1;whiteSpace=wrap;html=1;" vertex="1" parent="1">
          <mxGeometry x="80" y="220" width="120" height="60" as="geometry" />
        </mxCell>
        <mxCell id="vielIPxmUZmTdx7i_PGs-115" value="yes" style="edgeStyle=orthogonalEdgeStyle;rounded=0;orthogonalLoop=1;jettySize=auto;html=1;exitX=0.5;exitY=1;exitDx=0;exitDy=0;entryX=0.5;entryY=0;entryDx=0;entryDy=0;" edge="1" parent="1" source="vielIPxmUZmTdx7i_PGs-111" target="vielIPxmUZmTdx7i_PGs-112">
          <mxGeometry relative="1" as="geometry" />
        </mxCell>
        <mxCell id="vielIPxmUZmTdx7i_PGs-120" value="no" style="edgeStyle=orthogonalEdgeStyle;rounded=0;orthogonalLoop=1;jettySize=auto;html=1;exitX=1;exitY=0.5;exitDx=0;exitDy=0;entryX=0;entryY=0.5;entryDx=0;entryDy=0;" edge="1" parent="1" source="vielIPxmUZmTdx7i_PGs-111" target="vielIPxmUZmTdx7i_PGs-118">
          <mxGeometry relative="1" as="geometry" />
        </mxCell>
        <mxCell id="vielIPxmUZmTdx7i_PGs-111" value="i &amp;lt; n?" style="rhombus;whiteSpace=wrap;html=1;" vertex="1" parent="1">
          <mxGeometry x="100" y="320" width="80" height="80" as="geometry" />
        </mxCell>
        <mxCell id="vielIPxmUZmTdx7i_PGs-116" style="edgeStyle=orthogonalEdgeStyle;rounded=0;orthogonalLoop=1;jettySize=auto;html=1;exitX=0.5;exitY=1;exitDx=0;exitDy=0;entryX=0.5;entryY=0;entryDx=0;entryDy=0;" edge="1" parent="1" source="vielIPxmUZmTdx7i_PGs-112" target="vielIPxmUZmTdx7i_PGs-113">
          <mxGeometry relative="1" as="geometry" />
        </mxCell>
        <mxCell id="vielIPxmUZmTdx7i_PGs-112" value="enter a[i]" style="shape=parallelogram;perimeter=parallelogramPerimeter;whiteSpace=wrap;html=1;fixedSize=1;" vertex="1" parent="1">
          <mxGeometry x="80" y="440" width="120" height="60" as="geometry" />
        </mxCell>
        <mxCell id="vielIPxmUZmTdx7i_PGs-114" style="edgeStyle=orthogonalEdgeStyle;rounded=0;orthogonalLoop=1;jettySize=auto;html=1;exitX=0;exitY=0.5;exitDx=0;exitDy=0;entryX=0;entryY=0.5;entryDx=0;entryDy=0;" edge="1" parent="1" source="vielIPxmUZmTdx7i_PGs-113" target="vielIPxmUZmTdx7i_PGs-111">
          <mxGeometry relative="1" as="geometry" />
        </mxCell>
        <mxCell id="vielIPxmUZmTdx7i_PGs-113" value="i++" style="rounded=1;whiteSpace=wrap;html=1;" vertex="1" parent="1">
          <mxGeometry x="80" y="540" width="120" height="60" as="geometry" />
        </mxCell>
        <mxCell id="vielIPxmUZmTdx7i_PGs-122" style="edgeStyle=orthogonalEdgeStyle;rounded=0;orthogonalLoop=1;jettySize=auto;html=1;exitX=0.5;exitY=1;exitDx=0;exitDy=0;entryX=0.5;entryY=0;entryDx=0;entryDy=0;" edge="1" parent="1" source="vielIPxmUZmTdx7i_PGs-118" target="vielIPxmUZmTdx7i_PGs-121">
          <mxGeometry relative="1" as="geometry" />
        </mxCell>
        <mxCell id="vielIPxmUZmTdx7i_PGs-118" value="&lt;div&gt;cool = 0&lt;/div&gt;&lt;div&gt;max_cool = 0&lt;/div&gt;" style="rounded=1;whiteSpace=wrap;html=1;" vertex="1" parent="1">
          <mxGeometry x="280" y="10" width="120" height="60" as="geometry" />
        </mxCell>
        <mxCell id="vielIPxmUZmTdx7i_PGs-124" style="edgeStyle=orthogonalEdgeStyle;rounded=0;orthogonalLoop=1;jettySize=auto;html=1;exitX=0.5;exitY=1;exitDx=0;exitDy=0;entryX=0.5;entryY=0;entryDx=0;entryDy=0;" edge="1" parent="1" source="vielIPxmUZmTdx7i_PGs-121" target="vielIPxmUZmTdx7i_PGs-123">
          <mxGeometry relative="1" as="geometry" />
        </mxCell>
        <mxCell id="vielIPxmUZmTdx7i_PGs-121" value="i = 0" style="rounded=1;whiteSpace=wrap;html=1;" vertex="1" parent="1">
          <mxGeometry x="280" y="120" width="120" height="60" as="geometry" />
        </mxCell>
        <mxCell id="vielIPxmUZmTdx7i_PGs-142" value="yes" style="edgeStyle=orthogonalEdgeStyle;rounded=0;orthogonalLoop=1;jettySize=auto;html=1;exitX=0.5;exitY=1;exitDx=0;exitDy=0;entryX=0.5;entryY=0;entryDx=0;entryDy=0;" edge="1" parent="1" source="vielIPxmUZmTdx7i_PGs-123" target="vielIPxmUZmTdx7i_PGs-128">
          <mxGeometry relative="1" as="geometry" />
        </mxCell>
        <mxCell id="vielIPxmUZmTdx7i_PGs-148" style="edgeStyle=orthogonalEdgeStyle;rounded=0;orthogonalLoop=1;jettySize=auto;html=1;exitX=1;exitY=0.5;exitDx=0;exitDy=0;entryX=0.5;entryY=0;entryDx=0;entryDy=0;" edge="1" parent="1" source="vielIPxmUZmTdx7i_PGs-123" target="vielIPxmUZmTdx7i_PGs-147">
          <mxGeometry relative="1" as="geometry">
            <Array as="points">
              <mxPoint x="670" y="260" />
              <mxPoint x="670" y="750" />
              <mxPoint x="140" y="750" />
            </Array>
          </mxGeometry>
        </mxCell>
        <mxCell id="vielIPxmUZmTdx7i_PGs-149" value="no" style="edgeLabel;html=1;align=center;verticalAlign=middle;resizable=0;points=[];" vertex="1" connectable="0" parent="vielIPxmUZmTdx7i_PGs-148">
          <mxGeometry x="-0.9791" y="2" relative="1" as="geometry">
            <mxPoint as="offset" />
          </mxGeometry>
        </mxCell>
        <mxCell id="vielIPxmUZmTdx7i_PGs-123" value="i &amp;lt; n?" style="rhombus;whiteSpace=wrap;html=1;" vertex="1" parent="1">
          <mxGeometry x="300" y="220" width="80" height="80" as="geometry" />
        </mxCell>
        <mxCell id="vielIPxmUZmTdx7i_PGs-133" value="yes" style="edgeStyle=orthogonalEdgeStyle;rounded=0;orthogonalLoop=1;jettySize=auto;html=1;exitX=0.5;exitY=1;exitDx=0;exitDy=0;entryX=0.5;entryY=0;entryDx=0;entryDy=0;" edge="1" parent="1" source="vielIPxmUZmTdx7i_PGs-128" target="vielIPxmUZmTdx7i_PGs-129">
          <mxGeometry relative="1" as="geometry" />
        </mxCell>
        <mxCell id="vielIPxmUZmTdx7i_PGs-137" style="edgeStyle=orthogonalEdgeStyle;rounded=0;orthogonalLoop=1;jettySize=auto;html=1;exitX=1;exitY=0.5;exitDx=0;exitDy=0;entryX=0.5;entryY=0;entryDx=0;entryDy=0;" edge="1" parent="1" source="vielIPxmUZmTdx7i_PGs-128" target="vielIPxmUZmTdx7i_PGs-136">
          <mxGeometry relative="1" as="geometry" />
        </mxCell>
        <mxCell id="vielIPxmUZmTdx7i_PGs-128" value="a[i] &amp;gt;= k?" style="rhombus;whiteSpace=wrap;html=1;" vertex="1" parent="1">
          <mxGeometry x="300" y="340" width="80" height="80" as="geometry" />
        </mxCell>
        <mxCell id="vielIPxmUZmTdx7i_PGs-132" style="edgeStyle=orthogonalEdgeStyle;rounded=0;orthogonalLoop=1;jettySize=auto;html=1;exitX=0.5;exitY=1;exitDx=0;exitDy=0;entryX=0.5;entryY=0;entryDx=0;entryDy=0;" edge="1" parent="1" source="vielIPxmUZmTdx7i_PGs-129" target="vielIPxmUZmTdx7i_PGs-130">
          <mxGeometry relative="1" as="geometry" />
        </mxCell>
        <mxCell id="vielIPxmUZmTdx7i_PGs-129" value="cool++" style="rounded=1;whiteSpace=wrap;html=1;" vertex="1" parent="1">
          <mxGeometry x="280" y="460" width="120" height="60" as="geometry" />
        </mxCell>
        <mxCell id="vielIPxmUZmTdx7i_PGs-135" value="yes" style="edgeStyle=orthogonalEdgeStyle;rounded=0;orthogonalLoop=1;jettySize=auto;html=1;exitX=0.5;exitY=1;exitDx=0;exitDy=0;entryX=0.5;entryY=0;entryDx=0;entryDy=0;" edge="1" parent="1" source="vielIPxmUZmTdx7i_PGs-130" target="vielIPxmUZmTdx7i_PGs-134">
          <mxGeometry relative="1" as="geometry" />
        </mxCell>
        <mxCell id="vielIPxmUZmTdx7i_PGs-130" value="cool &amp;gt; max_cool?" style="rhombus;whiteSpace=wrap;html=1;" vertex="1" parent="1">
          <mxGeometry x="280" y="540" width="120" height="80" as="geometry" />
        </mxCell>
        <mxCell id="vielIPxmUZmTdx7i_PGs-134" value="max_cool = cool" style="rounded=1;whiteSpace=wrap;html=1;" vertex="1" parent="1">
          <mxGeometry x="280" y="660" width="120" height="60" as="geometry" />
        </mxCell>
        <mxCell id="vielIPxmUZmTdx7i_PGs-136" value="cool = 0" style="rounded=1;whiteSpace=wrap;html=1;" vertex="1" parent="1">
          <mxGeometry x="440" y="460" width="120" height="60" as="geometry" />
        </mxCell>
        <mxCell id="vielIPxmUZmTdx7i_PGs-139" value="" style="endArrow=classic;html=1;rounded=0;exitX=1;exitY=0.5;exitDx=0;exitDy=0;entryX=1;entryY=0.5;entryDx=0;entryDy=0;" edge="1" parent="1" source="vielIPxmUZmTdx7i_PGs-130" target="vielIPxmUZmTdx7i_PGs-140">
          <mxGeometry width="50" height="50" relative="1" as="geometry">
            <mxPoint x="430" y="590" as="sourcePoint" />
            <mxPoint x="560" y="200" as="targetPoint" />
            <Array as="points">
              <mxPoint x="600" y="580" />
              <mxPoint x="600" y="200" />
            </Array>
          </mxGeometry>
        </mxCell>
        <mxCell id="vielIPxmUZmTdx7i_PGs-143" value="no" style="edgeLabel;html=1;align=center;verticalAlign=middle;resizable=0;points=[];" vertex="1" connectable="0" parent="vielIPxmUZmTdx7i_PGs-139">
          <mxGeometry x="-0.9249" y="-1" relative="1" as="geometry">
            <mxPoint as="offset" />
          </mxGeometry>
        </mxCell>
        <mxCell id="vielIPxmUZmTdx7i_PGs-140" value="i++" style="rounded=1;whiteSpace=wrap;html=1;" vertex="1" parent="1">
          <mxGeometry x="440" y="170" width="120" height="60" as="geometry" />
        </mxCell>
        <mxCell id="vielIPxmUZmTdx7i_PGs-141" value="" style="endArrow=classic;html=1;rounded=0;exitX=0;exitY=0.5;exitDx=0;exitDy=0;" edge="1" parent="1" source="vielIPxmUZmTdx7i_PGs-140">
          <mxGeometry width="50" height="50" relative="1" as="geometry">
            <mxPoint x="360" y="240" as="sourcePoint" />
            <mxPoint x="340" y="200" as="targetPoint" />
          </mxGeometry>
        </mxCell>
        <mxCell id="vielIPxmUZmTdx7i_PGs-144" value="" style="endArrow=none;html=1;rounded=0;exitX=1;exitY=0.5;exitDx=0;exitDy=0;" edge="1" parent="1" source="vielIPxmUZmTdx7i_PGs-136">
          <mxGeometry width="50" height="50" relative="1" as="geometry">
            <mxPoint x="530" y="410" as="sourcePoint" />
            <mxPoint x="600" y="490" as="targetPoint" />
          </mxGeometry>
        </mxCell>
        <mxCell id="vielIPxmUZmTdx7i_PGs-145" value="" style="endArrow=none;html=1;rounded=0;exitX=1;exitY=0.5;exitDx=0;exitDy=0;" edge="1" parent="1" source="vielIPxmUZmTdx7i_PGs-134">
          <mxGeometry width="50" height="50" relative="1" as="geometry">
            <mxPoint x="450" y="680" as="sourcePoint" />
            <mxPoint x="600" y="580" as="targetPoint" />
            <Array as="points">
              <mxPoint x="600" y="690" />
            </Array>
          </mxGeometry>
        </mxCell>
        <mxCell id="vielIPxmUZmTdx7i_PGs-147" value="print max_cool" style="shape=parallelogram;perimeter=parallelogramPerimeter;whiteSpace=wrap;html=1;fixedSize=1;" vertex="1" parent="1">
          <mxGeometry x="80" y="780" width="120" height="60" as="geometry" />
        </mxCell>
      </root>
    </mxGraphModel>
  </diagram>
</mxfile>
